<svg width="200" height="200" xmlns="http://www.w3.org/2000/svg">
  <rect width="200" height="200" fill="white"/>
  <rect x="10" y="10" width="60" height="60" fill="black"/>
  <rect x="20" y="20" width="40" height="40" fill="white"/>
  <rect x="30" y="30" width="20" height="20" fill="black"/>
  
  <rect x="130" y="10" width="60" height="60" fill="black"/>
  <rect x="140" y="20" width="40" height="40" fill="white"/>
  <rect x="150" y="30" width="20" height="20" fill="black"/>
  
  <rect x="10" y="130" width="60" height="60" fill="black"/>
  <rect x="20" y="140" width="40" height="40" fill="white"/>
  <rect x="30" y="150" width="20" height="20" fill="black"/>
  
  <rect x="80" y="10" width="10" height="10" fill="black"/>
  <rect x="100" y="10" width="10" height="10" fill="black"/>
  <rect x="90" y="30" width="10" height="10" fill="black"/>
  <rect x="110" y="30" width="10" height="10" fill="black"/>
  <rect x="80" y="50" width="10" height="10" fill="black"/>
  <rect x="100" y="50" width="10" height="10" fill="black"/>
  <rect x="120" y="50" width="10" height="10" fill="black"/>
  
  <rect x="10" y="80" width="10" height="10" fill="black"/>
  <rect x="30" y="80" width="10" height="10" fill="black"/>
  <rect x="50" y="80" width="10" height="10" fill="black"/>
  <rect x="10" y="100" width="10" height="10" fill="black"/>
  <rect x="30" y="100" width="10" height="10" fill="black"/>
  <rect x="50" y="100" width="10" height="10" fill="black"/>
  
  <rect x="80" y="80" width="10" height="10" fill="black"/>
  <rect x="100" y="90" width="10" height="10" fill="black"/>
  <rect x="120" y="80" width="10" height="10" fill="black"/>
  <rect x="90" y="110" width="10" height="10" fill="black"/>
  <rect x="110" y="110" width="10" height="10" fill="black"/>
  
  <rect x="130" y="80" width="10" height="10" fill="black"/>
  <rect x="150" y="80" width="10" height="10" fill="black"/>
  <rect x="170" y="80" width="10" height="10" fill="black"/>
  <rect x="140" y="100" width="10" height="10" fill="black"/>
  <rect x="160" y="100" width="10" height="10" fill="black"/>
  <rect x="180" y="100" width="10" height="10" fill="black"/>
  
  <rect x="80" y="130" width="10" height="10" fill="black"/>
  <rect x="100" y="130" width="10" height="10" fill="black"/>
  <rect x="120" y="130" width="10" height="10" fill="black"/>
  <rect x="90" y="150" width="10" height="10" fill="black"/>
  <rect x="110" y="150" width="10" height="10" fill="black"/>
  <rect x="80" y="170" width="10" height="10" fill="black"/>
  <rect x="100" y="170" width="10" height="10" fill="black"/>
  <rect x="120" y="170" width="10" height="10" fill="black"/>
  
  <rect x="130" y="130" width="10" height="10" fill="black"/>
  <rect x="150" y="130" width="10" height="10" fill="black"/>
  <rect x="170" y="130" width="10" height="10" fill="black"/>
  <rect x="140" y="150" width="10" height="10" fill="black"/>
  <rect x="160" y="150" width="10" height="10" fill="black"/>
  <rect x="180" y="150" width="10" height="10" fill="black"/>
  <rect x="130" y="170" width="10" height="10" fill="black"/>
  <rect x="150" y="170" width="10" height="10" fill="black"/>
  <rect x="170" y="170" width="10" height="10" fill="black"/>
  <rect x="190" y="170" width="10" height="10" fill="black"/>
</svg>
